<?xml version="1.0" encoding="UTF-8" standalone="no"?>
<!DOCTYPE svg PUBLIC "-//W3C//DTD SVG 1.1//EN"
 "http://www.w3.org/Graphics/SVG/1.1/DTD/svg11.dtd">
<!-- Generated by graphviz version 2.40.1 (20161225.0304)
 -->
<!-- Title: dependencies Pages: 1 -->
<svg width="504pt" height="284pt"
 viewBox="0.00 0.00 504.00 284.00" xmlns="http://www.w3.org/2000/svg" xmlns:xlink="http://www.w3.org/1999/xlink">
<g id="graph0" class="graph" transform="scale(1 1) rotate(0) translate(4 280)">
<title>dependencies</title>
<polygon fill="#ffffff" stroke="transparent" points="-4,4 -4,-280 500,-280 500,4 -4,4"/>
<text text-anchor="start" x="227.0091" y="-42.4" font-family="sans-serif" font-weight="bold" font-size="14.00" fill="#000000">Legend</text>
<polygon fill="#ffffb3" stroke="transparent" points="14,-10 14,-30 34,-30 34,-10 14,-10"/>
<text text-anchor="start" x="37.629" y="-15.4" font-family="sans-serif" font-size="14.00" fill="#000000"> &#160;Declarations</text>
<polygon fill="#8dd3c7" stroke="transparent" points="127,-10 127,-30 147,-30 147,-10 127,-10"/>
<text text-anchor="start" x="150.7251" y="-15.4" font-family="sans-serif" font-size="14.00" fill="#000000"> &#160;Module</text>
<polygon fill="#80b1d3" stroke="transparent" points="213,-10 213,-30 233,-30 233,-10 213,-10"/>
<text text-anchor="start" x="236.7812" y="-15.4" font-family="sans-serif" font-size="14.00" fill="#000000"> &#160;Bootstrap</text>
<polygon fill="#fdb462" stroke="transparent" points="310,-10 310,-30 330,-30 330,-10 310,-10"/>
<text text-anchor="start" x="333.6732" y="-15.4" font-family="sans-serif" font-size="14.00" fill="#000000"> &#160;Providers</text>
<polygon fill="#fb8072" stroke="transparent" points="406,-10 406,-30 426,-30 426,-10 406,-10"/>
<text text-anchor="start" x="429.7258" y="-15.4" font-family="sans-serif" font-size="14.00" fill="#000000"> &#160;Exports</text>
<g id="clust1" class="cluster">
<title>cluster_TranslateModule</title>
<polygon fill="none" stroke="#000000" stroke-dasharray="1,5" points="113,-70 113,-268 383,-268 383,-70 113,-70"/>
</g>
<g id="clust2" class="cluster">
<title>cluster_TranslateModule_declarations</title>
<polygon fill="none" stroke="#000000" points="122,-78 122,-130 369,-130 369,-78 122,-78"/>
</g>
<g id="clust6" class="cluster">
<title>cluster_TranslateModule_exports</title>
<polygon fill="none" stroke="#000000" points="121,-208 121,-260 375,-260 375,-208 121,-208"/>
</g>
<!-- TranslateDirective -->
<g id="node1" class="node">
<title>TranslateDirective</title>
<polygon fill="#ffffb3" stroke="#000000" points="361.1657,-122 240.8343,-122 240.8343,-86 361.1657,-86 361.1657,-122"/>
<text text-anchor="middle" x="301" y="-99.8" font-family="Times,serif" font-size="14.00" fill="#000000">TranslateDirective</text>
</g>
<!-- TranslateModule -->
<g id="node3" class="node">
<title>TranslateModule</title>
<polygon fill="#8dd3c7" stroke="#000000" points="294.6332,-187 291.6332,-191 270.6332,-191 267.6332,-187 183.3668,-187 183.3668,-151 294.6332,-151 294.6332,-187"/>
<text text-anchor="middle" x="239" y="-164.8" font-family="Times,serif" font-size="14.00" fill="#000000">TranslateModule</text>
</g>
<!-- TranslateDirective&#45;&gt;TranslateModule -->
<g id="edge1" class="edge">
<title>TranslateDirective&#45;&gt;TranslateModule</title>
<path fill="none" stroke="#000000" d="M267.8668,-122.1061C267.8668,-122.1061 267.8668,-140.991 267.8668,-140.991"/>
<polygon fill="#000000" stroke="#000000" points="264.3668,-140.9909 267.8668,-150.991 271.3668,-140.991 264.3668,-140.9909"/>
</g>
<!-- TranslatePipe -->
<g id="node2" class="node">
<title>TranslatePipe</title>
<polygon fill="#ffffb3" stroke="#000000" points="222.4706,-122 129.5294,-122 129.5294,-86 222.4706,-86 222.4706,-122"/>
<text text-anchor="middle" x="176" y="-99.8" font-family="Times,serif" font-size="14.00" fill="#000000">TranslatePipe</text>
</g>
<!-- TranslatePipe&#45;&gt;TranslateModule -->
<g id="edge2" class="edge">
<title>TranslatePipe&#45;&gt;TranslateModule</title>
<path fill="none" stroke="#000000" d="M202.8345,-122.1061C202.8345,-122.1061 202.8345,-140.991 202.8345,-140.991"/>
<polygon fill="#000000" stroke="#000000" points="199.3346,-140.9909 202.8345,-150.991 206.3346,-140.991 199.3346,-140.9909"/>
</g>
<!-- TranslateDirective  -->
<g id="node4" class="node">
<title>TranslateDirective </title>
<polygon fill="#fb8072" stroke="#000000" points="366.6661,-252 243.3339,-252 243.3339,-216 366.6661,-216 366.6661,-252"/>
<text text-anchor="middle" x="305" y="-229.8" font-family="Times,serif" font-size="14.00" fill="#000000">TranslateDirective </text>
</g>
<!-- TranslateModule&#45;&gt;TranslateDirective  -->
<g id="edge3" class="edge">
<title>TranslateModule&#45;&gt;TranslateDirective </title>
<path fill="none" stroke="#000000" stroke-dasharray="5,2" d="M268.9918,-187.1061C268.9918,-187.1061 268.9918,-205.991 268.9918,-205.991"/>
<polygon fill="#000000" stroke="#000000" points="265.4918,-205.9909 268.9918,-215.991 272.4918,-205.991 265.4918,-205.9909"/>
</g>
<!-- TranslatePipe  -->
<g id="node5" class="node">
<title>TranslatePipe </title>
<polygon fill="#fb8072" stroke="#000000" points="225.4718,-252 128.5282,-252 128.5282,-216 225.4718,-216 225.4718,-252"/>
<text text-anchor="middle" x="177" y="-229.8" font-family="Times,serif" font-size="14.00" fill="#000000">TranslatePipe </text>
</g>
<!-- TranslateModule&#45;&gt;TranslatePipe  -->
<g id="edge4" class="edge">
<title>TranslateModule&#45;&gt;TranslatePipe </title>
<path fill="none" stroke="#000000" stroke-dasharray="5,2" d="M204.2095,-187.1061C204.2095,-187.1061 204.2095,-205.991 204.2095,-205.991"/>
<polygon fill="#000000" stroke="#000000" points="200.7096,-205.9909 204.2095,-215.991 207.7096,-205.991 200.7096,-205.9909"/>
</g>
</g>
</svg>
